<svg width="141" height="45" viewBox="0 0 141 45" fill="none" xmlns="http://www.w3.org/2000/svg">
<path d="M31.436 18.308C31.184 18.308 31.044 18.168 31.044 17.916V15.032C31.044 14.78 31.184 14.64 31.436 14.64H40.984V8.956C40.984 8.704 41.124 8.564 41.376 8.564H44.54C44.792 8.564 44.932 8.704 44.932 8.956V14.64H54.564C54.816 14.64 54.956 14.78 54.956 15.032V17.916C54.956 18.168 54.816 18.308 54.564 18.308H45.156C46.584 23.74 50.588 28.052 55.572 30.292C55.74 30.376 55.824 30.46 55.824 30.572C55.824 30.656 55.796 30.712 55.74 30.796L53.808 33.736C53.668 33.932 53.5 33.988 53.276 33.876C48.88 31.692 45.212 27.968 43.084 23.32C41.096 27.828 37.428 31.86 32.836 33.96C32.752 33.988 32.696 34.016 32.612 34.016C32.5 34.016 32.388 33.96 32.304 33.82L30.26 30.908C30.204 30.824 30.176 30.74 30.176 30.684C30.176 30.544 30.26 30.46 30.428 30.376C36.028 28.22 39.668 23.628 40.676 18.308H31.436ZM60.528 25C60.528 24.832 60.584 24.692 60.696 24.636L58.232 23.208C58.092 23.124 58.036 23.04 58.036 22.928C58.036 22.844 58.064 22.76 58.12 22.676C59.604 20.772 60.248 18.392 60.332 15.452V14.248L60.304 11.336C60.304 11.084 60.444 10.944 60.696 10.944H71.336L71.14 8.956V8.9C71.14 8.676 71.28 8.536 71.504 8.536H74.276C74.528 8.536 74.668 8.648 74.696 8.9L74.864 10.944H79.064C78.756 10.552 78.42 10.16 78.084 9.824C78 9.74 77.944 9.628 77.944 9.544C77.944 9.432 78.028 9.32 78.196 9.264L80.1 8.424C80.184 8.396 80.24 8.368 80.324 8.368C80.436 8.368 80.52 8.424 80.632 8.508C81.668 9.432 82.648 10.72 83.292 12.036C83.32 12.092 83.348 12.176 83.348 12.232C83.348 12.344 83.264 12.456 83.096 12.54L81.528 13.296V13.464C81.528 13.716 81.388 13.856 81.136 13.856H75.256C75.508 15.144 75.872 16.404 76.432 17.58C77.132 16.74 77.72 15.76 78.084 14.78C78.168 14.528 78.336 14.444 78.588 14.528L80.632 15.368C80.856 15.452 80.94 15.648 80.856 15.872C80.352 17.104 79.4 18.588 78.308 19.68C78.616 19.96 78.924 20.24 79.176 20.408C79.484 20.632 79.764 20.716 80.016 20.716C80.912 20.716 81.444 19.54 81.696 18.14C81.724 17.944 81.836 17.832 81.948 17.832C82.032 17.832 82.116 17.86 82.2 17.944L83.908 19.68C83.992 19.764 84.048 19.904 84.048 20.044C84.048 20.128 84.02 20.24 83.992 20.352C83.124 23.096 81.584 24.216 79.904 24.216C78.196 24.216 76.74 23.18 75.564 22.06C74.192 22.956 72.428 23.768 70.72 24.16C70.664 24.16 70.636 24.188 70.58 24.188C70.412 24.188 70.272 24.104 70.188 23.936L69.264 22.536C68.368 23.18 66.996 23.488 64.98 23.46C64.756 23.46 64.616 23.376 64.532 23.152L63.86 21.164C63.832 21.108 63.832 21.052 63.832 21.024C63.832 20.828 63.972 20.716 64.224 20.744L65.204 20.8C67.472 20.8 67.612 20.044 67.612 18.14H63.72C63.412 20.548 62.684 22.9 61.48 24.608H81.108C81.36 24.608 81.5 24.748 81.5 25V30.404H83.32C83.572 30.404 83.712 30.544 83.712 30.796V33.036C83.712 33.288 83.572 33.428 83.32 33.428H58.652C58.4 33.428 58.26 33.288 58.26 33.036V30.796C58.26 30.544 58.4 30.404 58.652 30.404H60.528V25ZM70.328 15.508C70.58 15.508 70.72 15.648 70.72 15.9V16.768C70.72 17.804 70.692 19.008 70.608 19.876C70.552 20.352 70.468 20.744 70.328 21.136C71.616 20.8 72.848 20.324 73.828 19.764C72.876 17.972 72.232 15.928 71.84 13.856H63.832L63.86 15.508H70.328ZM66.66 27.352H64V30.404H66.66V27.352ZM72.232 27.352H69.656V30.404H72.232V27.352ZM78.028 27.352H75.284V30.404H78.028V27.352ZM97.628 27.212C97.88 27.212 98.02 27.352 98.02 27.604V30.292C98.02 30.544 97.88 30.684 97.628 30.684H87.632C87.38 30.684 87.24 30.544 87.24 30.292V11.056C87.24 10.804 87.38 10.664 87.632 10.664C90.712 10.552 94.072 10.076 96.732 8.872C96.816 8.844 96.872 8.816 96.956 8.816C97.068 8.816 97.18 8.872 97.264 9.012L98.804 11.392C98.86 11.476 98.888 11.56 98.888 11.616C98.888 11.756 98.804 11.84 98.636 11.924C96.06 13.016 93.064 13.576 90.74 13.744V18.476H97.236C97.488 18.476 97.628 18.616 97.628 18.868V21.444C97.628 21.696 97.488 21.836 97.236 21.836H90.74V27.212H97.628ZM102.78 33.708C102.78 33.96 102.64 34.1 102.388 34.1H99.616C99.364 34.1 99.224 33.96 99.224 33.708V10.412C99.224 10.16 99.364 10.02 99.616 10.02H110.62C110.872 10.02 111.012 10.16 111.012 10.412V26.568C111.012 29.928 110.144 31.272 105.356 31.132C105.132 31.132 104.992 31.02 104.908 30.796L103.928 28.052C103.9 27.996 103.9 27.94 103.9 27.884C103.9 27.716 104.04 27.604 104.292 27.632L105.104 27.66C107.092 27.66 107.512 27.212 107.512 25.896V13.38H102.78V33.708ZM131.648 31.048C131.62 30.992 131.62 30.936 131.62 30.88C131.62 30.712 131.76 30.6 131.984 30.6L132.936 30.628C135.4 30.628 135.848 30.18 135.848 28.892V8.928C135.848 8.676 135.988 8.536 136.24 8.536H138.76C139.012 8.536 139.152 8.676 139.152 8.928V29.62C139.152 33.26 138.116 34.156 133.244 34.1C133.02 34.1 132.852 33.988 132.768 33.792L131.648 31.048ZM121.932 31.384C121.932 31.636 121.792 31.776 121.54 31.776H119.608C119.356 31.776 119.216 31.636 119.216 31.384V19.82C119.216 19.568 119.356 19.428 119.608 19.428H123.08V17.44H118.628V20.016C118.628 25.14 117.928 30.012 116.584 33.484C116.5 33.736 116.304 33.792 116.08 33.68L113.784 32.56C113.56 32.448 113.476 32.28 113.588 32.056C115.072 28.696 115.604 24.132 115.604 19.008V9.628C115.604 9.376 115.744 9.236 115.996 9.236H129.744C129.996 9.236 130.136 9.376 130.136 9.628V17.048C130.136 17.3 129.996 17.44 129.744 17.44H125.992V19.428H129.772C130.024 19.428 130.164 19.568 130.164 19.82V28.444C130.164 31.132 129.576 31.748 127.168 31.748C126.916 31.748 126.804 31.636 126.748 31.412L126.048 28.64V28.528C126.048 28.332 126.16 28.22 126.412 28.22C127.28 28.22 127.504 27.968 127.504 27.156V22.34H125.936V33.708C125.936 33.96 125.796 34.1 125.544 34.1H123.556C123.304 34.1 123.164 33.96 123.164 33.708V22.34H121.932V31.384ZM131.34 10.776C131.34 10.524 131.48 10.384 131.732 10.384H134C134.252 10.384 134.392 10.524 134.392 10.776V27.296C134.392 27.548 134.252 27.688 134 27.688H131.732C131.48 27.688 131.34 27.548 131.34 27.296V10.776ZM127.14 14.528V12.204H118.684V14.528H127.14Z" fill="#047AC4"/>
<path d="M4.38 20.72C4.38 20.828 4.32 20.888 4.212 20.888H3C2.892 20.888 2.832 20.828 2.832 20.72V16.304C2.412 16.736 1.98 17.132 1.524 17.48C1.488 17.516 1.452 17.528 1.416 17.528C1.368 17.528 1.32 17.504 1.284 17.444L0.504 16.304C0.48 16.268 0.468 16.232 0.468 16.196C0.468 16.148 0.492 16.112 0.552 16.076C1.968 15.08 2.928 13.904 3.6 12.572H1.08C0.972 12.572 0.912 12.512 0.912 12.404V11.324C0.912 11.216 0.972 11.156 1.08 11.156H4.176C4.284 10.808 4.392 10.46 4.476 10.1C4.5 9.992 4.56 9.956 4.668 9.968L6 10.136C6.108 10.148 6.168 10.22 6.132 10.352L5.904 11.156H11.208C11.316 11.156 11.376 11.216 11.376 11.324V12.404C11.376 12.512 11.316 12.572 11.208 12.572H5.364C5.22 12.896 5.064 13.196 4.896 13.496H10.212C10.32 13.496 10.38 13.556 10.38 13.664V19.028C10.38 20.324 9.804 20.876 7.896 20.876L7.524 20.864C7.428 20.864 7.356 20.828 7.32 20.732L6.96 19.652C6.948 19.628 6.948 19.604 6.948 19.592C6.948 19.508 7.008 19.448 7.116 19.46L7.632 19.472C8.736 19.472 8.82 19.22 8.82 18.836V18.632H4.38V20.72ZM8.82 14.744H4.38V15.584H8.82V14.744ZM8.82 16.736H4.38V17.504H8.82V16.736ZM16.26 20.792C16.164 20.792 16.116 20.744 16.092 20.648L15.912 19.52C15.9 19.508 15.9 19.496 15.9 19.484C15.9 19.388 15.96 19.34 16.056 19.34C16.416 19.316 16.812 19.292 17.208 19.244V10.472C17.208 10.364 17.268 10.304 17.376 10.304H22.656C22.764 10.304 22.824 10.364 22.824 10.472V15.764C22.824 15.872 22.764 15.932 22.656 15.932H20.664C20.736 16.4 20.868 16.844 21.072 17.264C21.54 16.988 21.972 16.628 22.272 16.244C22.308 16.196 22.356 16.16 22.404 16.16C22.428 16.16 22.464 16.184 22.512 16.208L23.292 16.82C23.34 16.856 23.364 16.904 23.364 16.952C23.364 17.204 22.02 18.176 21.768 18.32C22.2 18.8 22.764 19.196 23.46 19.472C23.532 19.496 23.568 19.544 23.568 19.604C23.568 19.628 23.568 19.664 23.544 19.688L22.944 20.732C22.884 20.828 22.812 20.852 22.716 20.804C20.856 19.856 19.644 18.008 19.296 15.932H18.684V19.04C19.224 18.944 19.728 18.824 20.148 18.692H20.22C20.292 18.692 20.34 18.74 20.34 18.836L20.352 19.916C20.352 20.012 20.316 20.072 20.244 20.096C19.248 20.396 17.592 20.66 16.284 20.792H16.26ZM12.876 10.436C12.876 10.328 12.936 10.268 13.044 10.268H16.608C16.716 10.268 16.776 10.328 16.776 10.436V11.372C16.776 11.456 16.764 11.504 16.74 11.576L15.924 13.964C16.428 14.756 16.764 15.608 16.764 16.532C16.764 17.468 16.248 18.476 14.856 18.56C14.76 18.56 14.7 18.512 14.676 18.416L14.34 17.204V17.144C14.34 17.072 14.388 17.024 14.496 17.024C15.072 17 15.432 16.748 15.432 16.028C15.432 15.512 15.168 14.816 14.784 14.264C14.736 14.192 14.724 14.12 14.748 14.036L15.444 11.564H14.268L14.244 20.72C14.244 20.828 14.184 20.888 14.076 20.888H13.044C12.936 20.888 12.876 20.828 12.876 20.72V10.436ZM21.36 14.684V13.688H18.684V14.684H21.36ZM21.36 12.548V11.576H18.684V12.548H21.36ZM1.32 28.408C1.296 28.42 1.272 28.42 1.248 28.42C1.188 28.42 1.14 28.396 1.104 28.324L0.504 27.112C0.492 27.076 0.48 27.04 0.48 27.016C0.48 26.956 0.516 26.92 0.588 26.896C2.448 26.26 4.116 25.144 5.184 24.064C5.244 24.004 5.304 23.98 5.388 23.98H6.6C6.684 23.98 6.744 24.004 6.804 24.064C7.992 25.144 9.648 26.212 11.412 26.788C11.52 26.824 11.556 26.896 11.508 27.004L10.872 28.228C10.824 28.324 10.752 28.348 10.656 28.312C10.188 28.132 9.732 27.904 9.288 27.664V28.516C9.288 28.624 9.228 28.684 9.12 28.684H2.988C2.88 28.684 2.82 28.624 2.82 28.516V27.724C2.34 27.988 1.836 28.216 1.32 28.408ZM8.724 27.34C7.728 26.74 6.816 26.044 6.024 25.336C5.316 26.044 4.44 26.74 3.468 27.34H8.724ZM0.996 31.12C0.888 31.12 0.828 31.06 0.828 30.952V29.896C0.828 29.788 0.888 29.728 0.996 29.728H11.004C11.112 29.728 11.172 29.788 11.172 29.896V30.952C11.172 31.06 11.112 31.12 11.004 31.12H5.4C5.052 31.804 4.644 32.452 4.212 33.016C5.688 32.956 7.224 32.872 8.46 32.728C8.244 32.428 8.004 32.14 7.74 31.864C7.704 31.828 7.68 31.78 7.68 31.744C7.68 31.708 7.716 31.66 7.788 31.636L8.772 31.24C8.808 31.228 8.832 31.216 8.856 31.216C8.904 31.216 8.952 31.24 9 31.288C9.852 32.092 10.644 33.184 11.172 34.228C11.184 34.264 11.196 34.288 11.196 34.312C11.196 34.384 11.148 34.432 11.076 34.456L9.816 34.864C9.792 34.876 9.768 34.876 9.744 34.876C9.684 34.876 9.624 34.84 9.6 34.768C9.492 34.504 9.36 34.24 9.228 33.976C7.02 34.276 4.044 34.48 1.44 34.588C1.332 34.588 1.26 34.552 1.248 34.444L1.068 33.292V33.268C1.068 33.172 1.128 33.112 1.224 33.112L2.34 33.076C2.844 32.476 3.276 31.792 3.648 31.12H0.996ZM15.936 34.72C15.936 34.828 15.876 34.888 15.768 34.888H14.592C14.484 34.888 14.424 34.828 14.424 34.72L14.436 30.52C14.256 30.664 13.224 31.504 13.056 31.504C12.996 31.504 12.96 31.468 12.924 31.396L12.492 30.268C12.48 30.244 12.48 30.22 12.48 30.196C12.48 30.136 12.504 30.088 12.576 30.052C13.896 29.332 15.108 28.204 15.804 27.028H13.128C13.02 27.028 12.96 26.968 12.96 26.86V25.78C12.96 25.672 13.02 25.612 13.128 25.612H14.436V24.124C14.436 24.016 14.496 23.956 14.604 23.956H15.768C15.876 23.956 15.936 24.016 15.936 24.124V25.612H17.28C17.388 25.612 17.448 25.672 17.448 25.78V26.86C17.448 27.22 16.524 28.492 16.284 28.792C16.8 29.26 17.448 29.668 18.012 29.956C18.072 29.992 18.096 30.028 18.096 30.088C18.096 30.112 18.084 30.148 18.072 30.184L17.472 31.288C17.424 31.384 17.34 31.42 17.244 31.36C16.776 31.06 16.32 30.652 15.912 30.208L15.936 34.72ZM17.556 28.9C17.448 28.9 17.388 28.84 17.388 28.732V27.544C17.388 27.436 17.448 27.376 17.556 27.376H19.476V24.124C19.476 24.016 19.536 23.956 19.644 23.956H20.844C20.952 23.956 21.012 24.016 21.012 24.124V27.376H22.98C23.088 27.376 23.148 27.436 23.148 27.544V28.732C23.148 28.84 23.088 28.9 22.98 28.9H21.012V33.1H23.352C23.46 33.1 23.52 33.16 23.52 33.268V34.396C23.52 34.504 23.46 34.564 23.352 34.564H16.968C16.86 34.564 16.8 34.504 16.8 34.396V33.268C16.8 33.16 16.86 33.1 16.968 33.1H19.476V28.9H17.556Z" fill="#047AC4"/>
</svg>
